<?xml version="1.0" encoding="utf-8"?>
<!-- Generator: Adobe Illustrator 22.1.0, SVG Export Plug-In . SVG Version: 6.00 Build 0)  -->
<svg version="1.1" id="图层_1" xmlns="http://www.w3.org/2000/svg" xmlns:xlink="http://www.w3.org/1999/xlink" x="0px" y="0px"
	 viewBox="0 0 105.6 44" style="enable-background:new 0 0 105.6 44;" xml:space="preserve">
<style type="text/css">
	.st0{fill:#FFFFFF;}
	.st1{fill:#00EF8B;}
	.st2{fill:#16FF99;}
</style>
<g>
	<path class="st0" d="M60.2,21.9h-2.7v10.1h-3.8V21.9h-2v-3.2h2v-1.3c0-3.3,2-4.9,5.1-4.9c0.5,0,1,0.1,1.4,0.2v3.8
		c-0.4-0.2-0.8-0.2-1.3-0.3c-0.8-0.1-1.4,0.5-1.5,1.3c0,0.1,0,0.1,0,0.2v1h2.7L60.2,21.9z M65.9,32.1h-3.8V12.8h3.8V32.1z"/>
	<path class="st0" d="M74.4,17.9c4,0,7.2,3.2,7.3,7.2c0,4-3.2,7.2-7.2,7.3s-7.2-3.2-7.3-7.2c0,0,0,0,0,0c0-3.9,3.1-7.2,7.1-7.2
		C74.3,17.9,74.3,17.9,74.4,17.9z M74.4,28.6c2,0,3.4-1.6,3.4-3.5c0.1-1.9-1.3-3.4-3.2-3.5c-0.1,0-0.1,0-0.2,0
		c-1.9,0.1-3.5,1.7-3.4,3.7C71.1,27.1,72.5,28.6,74.4,28.6z"/>
	<path class="st0" d="M85.6,18.2l2.5,9.2l2.5-7.3l-0.7-1.9h3.8l3.2,9.2l2.4-9.2h3.9l-4.1,13.9h-4l-2.8-7.6l-2.6,7.6h-4l-4.1-13.9
		H85.6z"/>
	<circle class="st1" cx="23.4" cy="22" r="21"/>
	<rect x="26.7" y="18.7" class="st0" width="5.9" height="5.9"/>
	<path class="st0" d="M20.8,26.9c0,1.2-1,2.2-2.2,2.2s-2.2-1-2.2-2.2c0-1.2,1-2.2,2.2-2.2c0,0,0,0,0,0h2.2v-5.9h-2.2
		c-4.5,0-8.2,3.6-8.2,8.2S14,35,18.5,35s8.2-3.6,8.2-8.2l0,0v-2.2h-5.9V26.9z"/>
	<path class="st0" d="M28.9,15.8h6.7V9.8h-6.7c-4.5,0-8.1,3.7-8.2,8.2v0.7h5.9V18C26.7,16.7,27.7,15.8,28.9,15.8z"/>
	<polygon class="st2" points="20.8,24.6 26.7,24.6 26.7,24.6 26.7,18.7 26.7,18.7 20.8,18.7 	"/>
</g>
</svg>
