<?xml version="1.0" encoding="utf-8"?>
<!-- Generator: Adobe Illustrator 22.1.0, SVG Export Plug-In . SVG Version: 6.00 Build 0)  -->
<svg version="1.1" id="Layer_1" xmlns:ev="http://www.w3.org/2001/xml-events"
	 xmlns="http://www.w3.org/2000/svg" xmlns:xlink="http://www.w3.org/1999/xlink" x="0px" y="0px" viewBox="0 0 30 30"
	 style="enable-background:new 0 0 30 30;" xml:space="preserve">
<style type="text/css">
	.st0{fill:#E2761B;}
	.st1{fill:#E4761B;}
	.st2{fill:#D7C1B3;}
	.st3{fill:#233447;}
	.st4{fill:#CD6116;}
	.st5{fill:#E4751F;}
	.st6{fill:#F6851B;}
	.st7{fill:#C0AD9E;}
	.st8{fill:#161616;}
	.st9{fill:#763D16;}
</style>
<script  xmlns=""></script>
<script  xmlns=""></script>
<g>
	<g>
		<g>
			<polygon class="st0" points="28.1,1.7 16.8,10.2 18.8,5.3 			"/>
		</g>
		<g>
			<path class="st0" d="M16.8,10.4C16.6,10.4,16.6,10.4,16.8,10.4C16.6,10.4,16.6,10.2,16.8,10.4l2.1-5.1l0,0l9.3-3.4l0,0l0,0
				L16.8,10.4L16.8,10.4z M18.9,5.3L17,10l11-8.2L18.9,5.3z"/>
		</g>
	</g>
	<g>
		<g>
			<g>
				<polygon class="st1" points="1.7,1.7 13,10.4 11.1,5.3 				"/>
			</g>
			<g>
				<path class="st1" d="M13,10.4L13,10.4L1.6,1.7l0,0l0,0l9.3,3.4l0,0L13,10.4C13.2,10.4,13.2,10.4,13,10.4
					C13.2,10.4,13,10.4,13,10.4z M2.1,2l10.8,8.2l-2-4.9L2.1,2z"/>
			</g>
		</g>
		<g>
			<g>
				<polygon class="st1" points="24,21.5 21.1,26.1 27.6,27.9 29.4,21.7 				"/>
			</g>
			<g>
				<path class="st1" d="M27.6,28.1C27.4,28.1,27.4,28.1,27.6,28.1l-6.6-1.8l0,0l0,0l3.1-4.8l0,0l5.4,0.2l0,0l0,0L27.6,28.1
					L27.6,28.1z M21.1,26.1l6.4,1.8l1.8-6.2L24,21.5L21.1,26.1z"/>
			</g>
		</g>
		<g>
			<g>
				<polygon class="st1" points="0.6,21.7 2.4,27.9 8.9,26.1 5.8,21.5 				"/>
			</g>
			<g>
				<path class="st1" d="M2.4,28.1L2.4,28.1l-2-6.4l0,0l0,0l5.4-0.2l0,0l3.1,4.8l0,0l0,0L2.4,28.1L2.4,28.1z M0.6,21.7l1.8,6.2
					l6.4-1.8l-2.9-4.6L0.6,21.7z"/>
			</g>
		</g>
		<g>
			<g>
				<polygon class="st1" points="8.6,13.6 6.6,16.4 13.2,16.6 13,9.7 				"/>
			</g>
			<g>
				<path class="st1" d="M13.2,16.8L13.2,16.8l-6.6-0.3l0,0l0,0l1.8-2.8l0,0l4.4-3.9l0,0l0,0L13.2,16.8
					C13.2,16.6,13.2,16.6,13.2,16.8L13.2,16.8z M6.8,16.3l6.4,0.3l-0.3-6.9l-4.3,3.8L6.8,16.3z"/>
			</g>
		</g>
		<g>
			<g>
				<polygon class="st1" points="21.4,13.6 16.8,9.6 16.8,16.6 23.2,16.4 				"/>
			</g>
			<g>
				<path class="st1" d="M16.8,16.8C16.6,16.8,16.6,16.8,16.8,16.8C16.6,16.6,16.6,16.6,16.8,16.8l0.2-7l0,0l0,0l4.4,3.9l0,0
					l1.8,2.8l0,0l0,0L16.8,16.8L16.8,16.8z M17,9.7l-0.2,6.9l6.4-0.3l-1.8-2.6L17,9.7z"/>
			</g>
		</g>
		<g>
			<g>
				<polygon class="st1" points="8.9,26.1 12.9,24.3 9.4,21.7 				"/>
			</g>
			<g>
				<path class="st1" d="M8.9,26.3L8.9,26.3C8.9,26.3,8.8,26.3,8.9,26.3l0.5-4.6l0,0l0,0l3.4,2.6l0,0l0,0L8.9,26.3L8.9,26.3z
					 M9.4,21.8l-0.5,4.3l3.8-1.8L9.4,21.8z"/>
			</g>
		</g>
		<g>
			<g>
				<polygon class="st1" points="17.1,24.3 21.1,26.1 20.4,21.7 				"/>
			</g>
			<g>
				<path class="st1" d="M21.1,26.3L21.1,26.3l-3.9-2l0,0l0,0l3.4-2.6l0,0l0,0L21.1,26.3L21.1,26.3L21.1,26.3z M17.1,24.3l3.8,1.8
					l-0.5-4.3L17.1,24.3z"/>
			</g>
		</g>
	</g>
	<g>
		<g>
			<polygon class="st2" points="21.1,26.1 17.1,24.3 17.5,26.8 17.5,27.9 			"/>
			<path class="st2" d="M17.5,27.9C17.3,27.9,17.3,27.9,17.5,27.9C17.3,27.9,17.3,27.9,17.5,27.9v-1.1l-0.3-2.5l0,0l0,0l3.9,2l0,0
				l0,0L17.5,27.9L17.5,27.9z M17.1,24.3l0.3,2.5v1l3.4-1.6L17.1,24.3z"/>
		</g>
		<g>
			<polygon class="st2" points="8.9,26.1 12.5,27.9 12.5,26.8 12.9,24.3 			"/>
			<path class="st2" d="M12.5,27.9L12.5,27.9l-3.6-1.8l0,0l0,0l3.9-2l0,0l0,0l-0.3,2.6V27.9L12.5,27.9L12.5,27.9z M9.1,26.1l3.4,1.6
				v-1l0.3-2.5L9.1,26.1z"/>
		</g>
	</g>
	<g>
		<g>
			<polygon class="st3" points="12.5,20 9.4,19.1 11.6,17.9 			"/>
		</g>
		<g>
			<path class="st3" d="M12.5,20L12.5,20l-3.3-1l0,0l0,0l2.3-1l0,0L12.5,20C12.7,20,12.7,20,12.5,20C12.7,20,12.5,20,12.5,20z
				 M9.6,19.1l2.9,0.8l-0.8-1.8L9.6,19.1z"/>
		</g>
	</g>
	<g>
		<g>
			<polygon class="st3" points="17.3,20 18.3,17.9 20.6,19.1 			"/>
		</g>
		<g>
			<path class="st3" d="M17.3,20L17.3,20L17.3,20l1-2.1l0,0l2.3,1l0,0l0,0L17.3,20L17.3,20z M18.3,18.1l-0.8,1.8l2.9-0.8L18.3,18.1z
				"/>
		</g>
	</g>
	<g>
		<g>
			<polygon class="st4" points="8.9,26.1 9.4,21.5 5.8,21.7 			"/>
			<path class="st4" d="M8.9,26.3L8.9,26.3l-3.1-4.6l0,0l0,0l3.6-0.2l0,0l0,0L8.9,26.3L8.9,26.3L8.9,26.3z M6,21.7l2.9,4.4l0.5-4.4
				H6z"/>
		</g>
		<g>
			<polygon class="st4" points="20.4,21.5 21.1,26.1 24,21.7 			"/>
			<path class="st4" d="M21.1,26.3L21.1,26.3C20.9,26.3,20.9,26.3,21.1,26.3l-0.7-4.8l0,0l0,0l3.6,0.2l0,0l0,0L21.1,26.3L21.1,26.3z
				 M20.6,21.5l0.5,4.4l2.9-4.4H20.6z"/>
		</g>
		<g>
			<polygon class="st4" points="23.2,16.4 16.8,16.6 17.3,20 18.3,17.9 20.6,19.1 			"/>
			<path class="st4" d="M17.3,20L17.3,20L17.3,20l-0.7-3.4l0,0l0,0l6.6-0.3l0,0l0,0l-2.6,2.6l0,0l-2.3-1L17.3,20L17.3,20z
				 M16.8,16.8l0.5,3.1l0.8-1.8l0,0l2.3,1l2.5-2.5L16.8,16.8z"/>
		</g>
		<g>
			<polygon class="st4" points="9.4,19.1 11.7,17.9 12.5,20 13.2,16.6 6.6,16.4 			"/>
			<path class="st4" d="M12.5,20L12.5,20l-1-2l-2.3,1l0,0l-2.6-2.6l0,0l0,0l6.6,0.3l0,0l0,0L12.5,20C12.7,20,12.7,20,12.5,20
				L12.5,20z M11.7,17.9L11.7,17.9l1,1.8l0.5-3.1L7,16.3l2.5,2.5L11.7,17.9C11.6,17.9,11.7,17.9,11.7,17.9z"/>
		</g>
	</g>
	<g>
		<g>
			<polygon class="st5" points="6.6,16.4 9.4,21.7 9.4,19.1 			"/>
			<path class="st5" d="M9.4,21.7L9.4,21.7l-2.8-5.4l0,0l0,0l2.6,2.6l0,0L9.4,21.7L9.4,21.7L9.4,21.7z M7,16.6l2.5,4.8l-0.2-2.3
				L7,16.6z"/>
		</g>
		<g>
			<polygon class="st5" points="20.6,19.1 20.4,21.7 23.2,16.4 			"/>
			<path class="st5" d="M20.4,21.7L20.4,21.7L20.4,21.7v-2.6l0,0l2.6-2.6l0,0l0,0L20.4,21.7C20.6,21.7,20.4,21.7,20.4,21.7z
				 M20.6,19.1l-0.2,2.3l2.5-4.8L20.6,19.1z"/>
		</g>
		<g>
			<polygon class="st5" points="13.2,16.6 12.5,20 13.4,24 13.5,18.7 			"/>
			<path class="st5" d="M13.4,24L13.4,24L12.5,20l0,0l0.7-3.3l0,0l0,0l0.3,2.1L13.4,24L13.4,24L13.4,24z M12.7,20l0.7,3.4l0.2-4.6
				l-0.3-1.8L12.7,20z"/>
		</g>
		<g>
			<polygon class="st5" points="16.8,16.6 16.5,18.7 16.5,24 17.3,20 			"/>
			<path class="st5" d="M16.5,24L16.5,24L16.5,24l-0.2-5.2l0.3-2.1l0,0l0,0l0.7,3.3l0,0L16.5,24C16.6,24,16.6,24,16.5,24z
				 M16.8,16.9l-0.3,1.8l0.2,4.6l0.7-3.4L16.8,16.9z"/>
		</g>
	</g>
	<g>
		<polygon class="st6" points="17.3,20 16.5,24 17.1,24.3 20.4,21.7 20.6,19.1 		"/>
		<path class="st6" d="M17.1,24.3L17.1,24.3L16.5,24l0,0l0.8-3.9l0,0l3.3-1l0,0l0,0l-0.2,2.6l0,0L17.1,24.3L17.1,24.3z M16.6,23.8
			l0.5,0.3l3.3-2.6l0.2-2.5l-3.1,1L16.6,23.8z"/>
	</g>
	<g>
		<polygon class="st6" points="9.4,19.1 9.4,21.7 12.9,24.3 13.4,24 12.5,20 		"/>
		<path class="st6" d="M12.9,24.3C12.9,24.3,12.7,24.3,12.9,24.3l-3.4-2.6l0,0l-0.2-2.6l0,0l0,0l3.3,1l0,0l0.8,3.9l0,0L12.9,24.3
			L12.9,24.3z M9.4,21.7l3.3,2.6l0.5-0.3L12.4,20l-3.1-1L9.4,21.7z"/>
	</g>
	<g>
		<polygon class="st7" points="17.5,27.9 17.5,26.8 17.1,26.6 12.7,26.6 12.5,26.8 12.5,27.9 8.9,26.1 10.2,27.2 12.7,29 17.1,29 
			19.7,27.2 21.1,26.1 		"/>
		<path class="st7" d="M17.1,29h-4.4l0,0l-2.6-1.8l-1.3-1l0,0l0,0l3.6,1.6v-1l0,0l0.3-0.3l0,0h4.4l0,0l0.3,0.3l0,0v1l3.6-1.6l0,0
			l0,0l-1.3,1L17.1,29L17.1,29z M12.7,28.9h4.4l2.6-1.8l0.8-0.7l-3.3,1.5l0,0l0,0v-1L17,26.8h-4.1l-0.2,0.2v1l0,0l0,0l-3.3-1.5
			l1,0.8L12.7,28.9z"/>
	</g>
	<g>
		<g>
			<polygon class="st8" points="17.1,24.3 16.5,24 13.4,24 12.9,24.3 12.5,26.8 12.7,26.6 17.1,26.6 17.5,26.8 			"/>
		</g>
		<g>
			<path class="st8" d="M12.5,26.9L12.5,26.9C12.5,26.9,12.4,26.9,12.5,26.9l0.2-2.6l0,0l0.5-0.3l0,0h3.1l0,0l0.5,0.3l0,0l0.3,2.6
				l0,0l0,0l-0.3-0.2h-3.9L12.5,26.9L12.5,26.9z M12.7,26.6h4.4l0,0l0.2,0.2L17,24.5l-0.5-0.3h-3.1l-0.5,0.2l-0.3,2.3H12.7
				L12.7,26.6z"/>
		</g>
	</g>
	<g>
		<g>
			<g>
				<polygon class="st9" points="28.6,10.9 29.6,6.1 28.1,1.7 17.1,10 21.4,13.6 27.4,15.3 28.8,13.8 28.1,13.3 29.1,12.5 28.4,12 
					29.3,11.4 				"/>
			</g>
			<g>
				<path class="st9" d="M27.4,15.5L27.4,15.5l-6.1-1.8l0,0L17.1,10l0,0l0,0l11.1-8.2l0,0l0,0l1.5,4.4l0,0l-1,4.6l0.7,0.5l0,0l0,0
					L28.6,12l0.7,0.5l0,0l0,0l-0.8,0.8l0.5,0.3l0,0l0,0L27.4,15.5L27.4,15.5z M21.4,13.5l5.9,1.8l1.3-1.5l-0.5-0.3l0,0l0,0l0.8-0.8
					l-0.7-0.5l0,0l0,0l0.8-0.7L28.6,11l0,0l1-4.8L28.1,2l-11,8.2L21.4,13.5z"/>
			</g>
		</g>
		<g>
			<g>
				<polygon class="st9" points="0.3,6.1 1.2,10.9 0.6,11.4 1.6,12 0.9,12.5 1.7,13.3 1.2,13.8 2.5,15.3 8.6,13.6 12.9,10 1.7,1.7 
									"/>
			</g>
			<g>
				<path class="st9" d="M2.5,15.5L2.5,15.5l-1.3-1.6l0,0l0,0l0.5-0.3l-1-0.8l0,0l0,0L1.4,12l-0.8-0.7l0,0l0,0l0.7-0.5l-1-4.8l0,0
					l1.5-4.4l0,0l0,0l11.1,8.2l0,0l0,0l-4.3,3.6l0,0L2.5,15.5L2.5,15.5z M1.2,13.8l1.3,1.5l5.9-1.8l4.3-3.6l-11-8.2L0.3,6.1l1,4.8
					l0,0l-0.5,0.5L1.6,12l0,0l0,0l-0.7,0.5l0.8,0.8l0,0l0,0L1.2,13.8z"/>
			</g>
		</g>
	</g>
	<g>
		<polygon class="st6" points="27.4,15.3 21.4,13.6 23.2,16.4 20.4,21.7 24,21.7 29.4,21.7 		"/>
		<path class="st6" d="M20.4,21.7L20.4,21.7L20.4,21.7l2.6-5.4l-1.8-2.8l0,0l0,0l6.1,1.8l0,0l2,6.2l0,0l0,0h-5.4L20.4,21.7
			L20.4,21.7z M21.6,13.6l1.8,2.6l0,0l-2.6,5.2h3.4h5.2l-2-6.1L21.6,13.6z"/>
	</g>
	<g>
		<polygon class="st6" points="8.6,13.6 2.5,15.3 0.6,21.7 5.8,21.7 9.4,21.7 6.6,16.4 		"/>
		<path class="st6" d="M9.4,21.7L9.4,21.7H5.8H0.6l0,0l0,0l2-6.2l0,0l6.1-1.8l0,0l0,0l-1.8,2.8L9.4,21.7L9.4,21.7L9.4,21.7z
			 M0.6,21.5h5.2h3.4l-2.6-5.2l0,0l1.8-2.6l-5.9,1.6L0.6,21.5z"/>
	</g>
	<g>
		<g>
			<polygon class="st6" points="16.8,16.6 17.1,10 18.9,5.3 11.1,5.3 12.9,10 13.2,16.6 13.4,18.7 13.4,24 16.5,24 16.6,18.7 			"/>
		</g>
		<g>
			<path class="st6" d="M16.5,24h-3.1l0,0v-5.1l-0.2-2.1L12.9,10l-1.8-4.8l0,0l0,0h7.7l0,0l0,0L17,10l-0.3,6.7l0,0l-0.2,2.1L16.5,24
				C16.6,24,16.6,24,16.5,24z M13.4,23.8h3.1v-5.1l0.2-2.1L17,9.9l0,0l1.8-4.6h-7.5l1.6,4.6l0,0l0.3,6.7l0.2,2.1V23.8z M16.8,16.6
				L16.8,16.6L16.8,16.6z"/>
		</g>
	</g>
	<script  xmlns=""></script>
</g>
</svg>
